<svg width="120" height="120" viewBox="0 0 120 120" fill="none" xmlns="http://www.w3.org/2000/svg">
<circle cx="60" cy="60" r="60" fill="#441DFC" fill-opacity="0.08"/>
<path d="M76.7873 42.3141C77.2033 42.3141 77.6022 42.1488 77.8964 41.8547C78.1905 41.5605 78.3558 41.1615 78.3558 40.7455C78.3558 40.3296 78.1905 39.9306 77.8964 39.6364C77.6022 39.3423 77.2033 39.177 76.7873 39.177C76.2231 39.1774 75.6665 39.0473 75.1609 38.7969C74.6553 38.5466 74.2145 38.1827 73.8728 37.7338C73.5311 37.2848 73.2978 36.763 73.1912 36.209C73.0845 35.655 73.1074 35.0838 73.258 34.5401C73.4086 33.9964 73.6829 33.4949 74.0594 33.0747C74.4359 32.6546 74.9045 32.3272 75.4285 32.118C75.9524 31.9089 76.5177 31.8238 77.08 31.8692C77.6424 31.9147 78.1866 32.0896 78.6702 32.3802H82.8136C82.2569 31.3109 81.4258 30.409 80.4056 29.7669C79.3853 29.1248 78.2126 28.7656 77.0078 28.7263C75.8029 28.6869 74.6093 28.9688 73.5493 29.5429C72.4893 30.1171 71.6011 30.9629 70.9758 31.9935C70.3506 33.0242 70.0107 34.2026 69.9911 35.408C69.9716 36.6133 70.2729 37.8022 70.8644 38.8526C71.4559 39.903 72.3161 40.7772 73.3569 41.3855C74.3977 41.9938 75.5815 42.3143 76.787 42.3141H76.7873Z" fill="#4E4BCB"/>
<path d="M60.9637 42.3141C61.3797 42.3141 61.7787 42.1488 62.0728 41.8547C62.367 41.5605 62.5322 41.1615 62.5322 40.7455C62.5322 40.3296 62.367 39.9306 62.0728 39.6364C61.7787 39.3423 61.3797 39.177 60.9637 39.177C60.3995 39.1775 59.8429 39.0475 59.3372 38.7972C58.8316 38.5469 58.3906 38.1831 58.0489 37.7342C57.7071 37.2853 57.4737 36.7634 57.367 36.2094C57.2603 35.6554 57.2831 35.0842 57.4337 34.5404C57.5843 33.9967 57.8585 33.4951 58.235 33.0749C58.6115 32.6547 59.0801 32.3272 59.6041 32.1181C60.1281 31.9089 60.6934 31.8238 61.2557 31.8692C61.8181 31.9147 62.3623 32.0896 62.8459 32.3802H66.9894C66.4327 31.3109 65.6016 30.409 64.5814 29.7669C63.5611 29.1248 62.3884 28.7656 61.1835 28.7263C59.9787 28.6869 58.785 28.9688 57.7251 29.5429C56.6651 30.1171 55.7769 30.9629 55.1516 31.9935C54.5263 33.0242 54.1865 34.2026 54.1669 35.408C54.1473 36.6133 54.4487 37.8022 55.0402 38.8526C55.6317 39.903 56.4919 40.7772 57.5327 41.3855C58.5735 41.9938 59.7573 42.3143 60.9628 42.3141H60.9637Z" fill="#4E4BCB"/>
<path d="M86.6766 35.8868C86.7326 35.656 86.7354 35.4156 86.6849 35.1836C86.6344 34.9516 86.5319 34.7342 86.3851 34.5476C86.2384 34.3609 86.0511 34.2101 85.8376 34.1064C85.624 34.0026 85.3897 33.9487 85.1523 33.9487H75.4082C75.0884 34.2288 74.8617 34.5998 74.7583 35.0121C74.6549 35.4244 74.6798 35.8585 74.8297 36.2563C74.9796 36.6541 75.2472 36.9967 75.597 37.2383C75.9467 37.48 76.3618 37.6091 76.7869 37.6086C77.1989 37.6086 77.6068 37.6897 77.9874 37.8474C78.368 38.005 78.7138 38.2361 79.0051 38.5274C79.2964 38.8187 79.5275 39.1645 79.6852 39.5451C79.8428 39.9257 79.9239 40.3336 79.9239 40.7456C79.9239 41.1576 79.8428 41.5655 79.6852 41.9461C79.5275 42.3267 79.2964 42.6725 79.0051 42.9638C78.7138 43.2551 78.368 43.4862 77.9874 43.6438C77.6068 43.8015 77.1989 43.8826 76.7869 43.8826C75.5552 43.8834 74.3386 43.6121 73.2239 43.088C72.1093 42.5638 71.1243 41.7999 70.3393 40.8507C69.5543 39.9016 68.9887 38.7907 68.6831 37.5975C68.3774 36.4044 68.3391 35.1584 68.5711 33.9487H59.5855C59.2656 34.2287 59.0388 34.5997 58.9354 35.0121C58.832 35.4244 58.8569 35.8585 59.0067 36.2563C59.1566 36.6541 59.4243 36.9967 59.774 37.2384C60.1238 37.48 60.5389 37.6092 60.9641 37.6086C61.376 37.6086 61.7839 37.6897 62.1645 37.8474C62.5451 38.005 62.891 38.2361 63.1823 38.5274C63.4736 38.8187 63.7046 39.1645 63.8623 39.5451C64.0199 39.9257 64.1011 40.3336 64.1011 40.7456C64.1011 41.1576 64.0199 41.5655 63.8623 41.9461C63.7046 42.3267 63.4736 42.6725 63.1823 42.9638C62.891 43.2551 62.5451 43.4862 62.1645 43.6438C61.7839 43.8015 61.376 43.8826 60.9641 43.8826C59.7323 43.8835 58.5156 43.6122 57.401 43.0881C56.2863 42.564 55.3013 41.8 54.5163 40.8509C53.7313 39.9017 53.1657 38.7908 52.8601 37.5976C52.5545 36.4044 52.5163 35.1584 52.7483 33.9487H43.7626C43.4427 34.2287 43.216 34.5997 43.1125 35.0121C43.0091 35.4244 43.034 35.8585 43.1838 36.2563C43.3337 36.6541 43.6014 36.9967 43.9511 37.2384C44.3009 37.48 44.7161 37.6092 45.1412 37.6086C45.5531 37.6086 45.9611 37.6897 46.3417 37.8474C46.7223 38.005 47.0681 38.2361 47.3594 38.5274C47.6507 38.8187 47.8818 39.1645 48.0394 39.5451C48.1971 39.9257 48.2782 40.3336 48.2782 40.7456C48.2782 41.1576 48.1971 41.5655 48.0394 41.9461C47.8818 42.3267 47.6507 42.6725 47.3594 42.9638C47.0681 43.2551 46.7223 43.4862 46.3417 43.6438C45.9611 43.8015 45.5531 43.8826 45.1412 43.8826C43.9095 43.8835 42.6928 43.6122 41.5781 43.0881C40.4635 42.564 39.4784 41.8 38.6934 40.8509C37.9084 39.9017 37.3429 38.7908 37.0372 37.5976C36.7316 36.4044 36.6934 35.1584 36.9255 33.9487H36.0057C35.6539 33.9486 35.3123 34.0668 35.0357 34.2843C34.7592 34.5017 34.5638 34.8058 34.4809 35.1477L32.0469 45.1897H84.422L86.6766 35.8868Z" fill="#4E4BCB"/>
<path d="M45.1421 42.3143C45.5581 42.3143 45.9571 42.1491 46.2512 41.8549C46.5454 41.5608 46.7106 41.1618 46.7106 40.7458C46.7106 40.3298 46.5454 39.9309 46.2512 39.6367C45.9571 39.3426 45.5581 39.1773 45.1421 39.1773C44.578 39.1776 44.0213 39.0476 43.5158 38.7972C43.0102 38.5468 42.5693 38.183 42.2276 37.734C41.8859 37.2851 41.6527 36.7633 41.546 36.2093C41.4394 35.6552 41.4622 35.0841 41.6129 34.5404C41.7635 33.9967 42.0377 33.4952 42.4143 33.075C42.7908 32.6548 43.2593 32.3274 43.7833 32.1183C44.3073 31.9092 44.8725 31.824 45.4349 31.8695C45.9972 31.915 46.5414 32.0898 47.025 32.3804H51.1685C50.6118 31.3111 49.7807 30.4091 48.7604 29.767C47.7401 29.1248 46.5674 28.7657 45.3625 28.7263C44.1576 28.6869 42.964 28.9688 41.9039 29.5429C40.8439 30.1171 39.9557 30.9629 39.3304 31.9935C38.7051 33.0242 38.3652 34.2027 38.3456 35.4081C38.326 36.6135 38.6274 37.8023 39.2189 38.8528C39.8104 39.9033 40.6707 40.7775 41.7115 41.3858C42.7523 41.9941 43.9362 42.3145 45.1417 42.3143H45.1421Z" fill="#4E4BCB"/>
<path d="M86.7215 64.4069V42.3625L81.9209 62.165C83.637 62.6336 85.2605 63.3918 86.7215 64.4069Z" fill="#4E4BCB"/>
<path d="M77.7988 61.6136C78.6665 61.6137 79.5327 61.6856 80.3885 61.8286L84.042 46.7578H31.6675L26.1164 69.6548C26.0605 69.8855 26.0577 70.1259 26.1082 70.3579C26.1587 70.5899 26.2611 70.8074 26.4079 70.994C26.5547 71.1806 26.7419 71.3315 26.9555 71.4352C27.169 71.5389 27.4033 71.5928 27.6407 71.5928H63.1883C64.3396 68.6545 66.3492 66.1309 68.9552 64.351C71.5613 62.571 74.6429 61.6171 77.7988 61.6136ZM69.9909 51.2023H74.1736C74.5896 51.2023 74.9885 51.3676 75.2827 51.6617C75.5768 51.9559 75.7421 52.3548 75.7421 52.7708C75.7421 53.1868 75.5768 53.5858 75.2827 53.8799C74.9885 54.1741 74.5896 54.3393 74.1736 54.3393H69.9909C69.5749 54.3393 69.1759 54.1741 68.8818 53.8799C68.5876 53.5858 68.4224 53.1868 68.4224 52.7708C68.4224 52.3548 68.5876 51.9559 68.8818 51.6617C69.1759 51.3676 69.5749 51.2023 69.9909 51.2023ZM39.6664 66.8874H35.4837C35.0677 66.8874 34.6687 66.7222 34.3746 66.428C34.0804 66.1339 33.9152 65.7349 33.9152 65.3189C33.9152 64.9029 34.0804 64.504 34.3746 64.2098C34.6687 63.9156 35.0677 63.7504 35.4837 63.7504H39.6664C40.0824 63.7504 40.4813 63.9156 40.7755 64.2098C41.0696 64.504 41.2349 64.9029 41.2349 65.3189C41.2349 65.7349 41.0696 66.1339 40.7755 66.428C40.4813 66.7222 40.0824 66.8874 39.6664 66.8874ZM40.712 60.6134H36.5294C36.1134 60.6134 35.7144 60.4481 35.4203 60.154C35.1261 59.8598 34.9608 59.4609 34.9608 59.0449C34.9608 58.6289 35.1261 58.2299 35.4203 57.9358C35.7144 57.6416 36.1134 57.4764 36.5294 57.4764H40.712C41.128 57.4764 41.527 57.6416 41.8212 57.9358C42.1153 58.2299 42.2806 58.6289 42.2806 59.0449C42.2806 59.4609 42.1153 59.8598 41.8212 60.154C41.527 60.4481 41.128 60.6134 40.712 60.6134ZM42.8034 54.3393H38.6207C38.2047 54.3393 37.8057 54.1741 37.5116 53.8799C37.2174 53.5858 37.0522 53.1868 37.0522 52.7708C37.0522 52.3548 37.2174 51.9559 37.5116 51.6617C37.8057 51.3676 38.2047 51.2023 38.6207 51.2023H42.8034C43.2194 51.2023 43.6183 51.3676 43.9125 51.6617C44.2066 51.9559 44.3719 52.3548 44.3719 52.7708C44.3719 53.1868 44.2066 53.5858 43.9125 53.8799C43.6183 54.1741 43.2194 54.3393 42.8034 54.3393ZM50.1231 66.8874H45.9404C45.5244 66.8874 45.1255 66.7222 44.8313 66.428C44.5372 66.1339 44.3719 65.7349 44.3719 65.3189C44.3719 64.9029 44.5372 64.504 44.8313 64.2098C45.1255 63.9156 45.5244 63.7504 45.9404 63.7504H50.1231C50.5391 63.7504 50.9381 63.9156 51.2322 64.2098C51.5264 64.504 51.6916 64.9029 51.6916 65.3189C51.6916 65.7349 51.5264 66.1339 51.2322 66.428C50.9381 66.7222 50.5391 66.8874 50.1231 66.8874ZM51.1688 60.6134H46.9861C46.5701 60.6134 46.1711 60.4481 45.877 60.154C45.5828 59.8598 45.4176 59.4609 45.4176 59.0449C45.4176 58.6289 45.5828 58.2299 45.877 57.9358C46.1711 57.6416 46.5701 57.4764 46.9861 57.4764H51.1688C51.5848 57.4764 51.9837 57.6416 52.2779 57.9358C52.572 58.2299 52.7373 58.6289 52.7373 59.0449C52.7373 59.4609 52.572 59.8598 52.2779 60.154C51.9837 60.4481 51.5848 60.6134 51.1688 60.6134ZM53.2601 54.3393H49.0774C48.6614 54.3393 48.2625 54.1741 47.9683 53.8799C47.6742 53.5858 47.5089 53.1868 47.5089 52.7708C47.5089 52.3548 47.6742 51.9559 47.9683 51.6617C48.2625 51.3676 48.6614 51.2023 49.0774 51.2023H53.2601C53.6761 51.2023 54.0751 51.3676 54.3692 51.6617C54.6634 51.9559 54.8286 52.3548 54.8286 52.7708C54.8286 53.1868 54.6634 53.5858 54.3692 53.8799C54.0751 54.1741 53.6761 54.3393 53.2601 54.3393ZM60.5798 66.8874H56.3971C55.9811 66.8874 55.5822 66.7222 55.288 66.428C54.9939 66.1339 54.8286 65.7349 54.8286 65.3189C54.8286 64.9029 54.9939 64.504 55.288 64.2098C55.5822 63.9156 55.9811 63.7504 56.3971 63.7504H60.5798C60.9958 63.7504 61.3948 63.9156 61.6889 64.2098C61.9831 64.504 62.1483 64.9029 62.1483 65.3189C62.1483 65.7349 61.9831 66.1339 61.6889 66.428C61.3948 66.7222 60.9958 66.8874 60.5798 66.8874ZM61.6255 60.6134H57.4428C57.0268 60.6134 56.6279 60.4481 56.3337 60.154C56.0396 59.8598 55.8743 59.4609 55.8743 59.0449C55.8743 58.6289 56.0396 58.2299 56.3337 57.9358C56.6279 57.6416 57.0268 57.4764 57.4428 57.4764H61.6255C62.0415 57.4764 62.4405 57.6416 62.7346 57.9358C63.0288 58.2299 63.194 58.6289 63.194 59.0449C63.194 59.4609 63.0288 59.8598 62.7346 60.154C62.4405 60.4481 62.0415 60.6134 61.6255 60.6134ZM63.7169 54.3393H59.5342C59.1182 54.3393 58.7192 54.1741 58.4251 53.8799C58.1309 53.5858 57.9657 53.1868 57.9657 52.7708C57.9657 52.3548 58.1309 51.9559 58.4251 51.6617C58.7192 51.3676 59.1182 51.2023 59.5342 51.2023H63.7169C64.1329 51.2023 64.5318 51.3676 64.826 51.6617C65.1201 51.9559 65.2854 52.3548 65.2854 52.7708C65.2854 53.1868 65.1201 53.5858 64.826 53.8799C64.5318 54.1741 64.1329 54.3393 63.7169 54.3393ZM67.8995 57.4764H72.0822C72.4982 57.4764 72.8972 57.6416 73.1913 57.9358C73.4855 58.2299 73.6507 58.6289 73.6507 59.0449C73.6507 59.4609 73.4855 59.8598 73.1913 60.154C72.8972 60.4481 72.4982 60.6134 72.0822 60.6134H67.8995C67.4836 60.6134 67.0846 60.4481 66.7904 60.154C66.4963 59.8598 66.331 59.4609 66.331 59.0449C66.331 58.6289 66.4963 58.2299 66.7904 57.9358C67.0846 57.6416 67.4836 57.4764 67.8995 57.4764Z" fill="#4E4BCB"/>
<path d="M34.4385 73.1616V77.3443C34.4385 77.7603 34.6037 78.1593 34.8979 78.4534C35.192 78.7476 35.591 78.9128 36.007 78.9128H62.1968C61.9982 76.983 62.1583 75.0332 62.669 73.1616H34.4385Z" fill="#4E4BCB"/>
<path d="M90.3825 33.9487H87.8691C88.146 34.4251 88.2916 34.9663 88.2912 35.5172V65.6492C89.8179 67.0245 91.0611 68.6849 91.9511 70.537V35.5172C91.9511 35.1012 91.7858 34.7023 91.4916 34.4081C91.1975 34.114 90.7985 33.9487 90.3825 33.9487Z" fill="#4E4BCB"/>
<path d="M77.7992 63.1821C75.0072 63.1821 72.2779 64.01 69.9565 65.5612C67.635 67.1123 65.8256 69.3171 64.7572 71.8965C63.6887 74.476 63.4092 77.3144 63.9539 80.0527C64.4986 82.7911 65.843 85.3064 67.8173 87.2806C69.7915 89.2549 72.3068 90.5993 75.0452 91.144C77.7835 91.6887 80.6219 91.4092 83.2014 90.3407C85.7809 89.2723 87.9856 87.4629 89.5367 85.1415C91.0879 82.82 91.9158 80.0907 91.9158 77.2987C91.9116 73.5561 90.4229 69.9679 87.7765 67.3214C85.13 64.675 81.5419 63.1863 77.7992 63.1821ZM79.3677 88.164V86.7098C79.3677 86.2938 79.2025 85.8948 78.9083 85.6007C78.6142 85.3065 78.2152 85.1413 77.7992 85.1413C77.3832 85.1413 76.9843 85.3065 76.6901 85.6007C76.396 85.8948 76.2307 86.2938 76.2307 86.7098V88.164C73.8866 87.8218 71.7156 86.7321 70.0405 85.057C68.3654 83.3819 67.2757 81.2109 66.9335 78.8668H68.3882C68.8041 78.8668 69.2031 78.7016 69.4973 78.4074C69.7914 78.1133 69.9567 77.7143 69.9567 77.2983C69.9567 76.8823 69.7914 76.4834 69.4973 76.1892C69.2031 75.8951 68.8041 75.7298 68.3882 75.7298H66.9335C67.2758 73.3858 68.3655 71.2148 70.0406 69.5398C71.7157 67.8648 73.8867 66.7752 76.2307 66.433V67.8877C76.2307 68.3036 76.396 68.7026 76.6901 68.9968C76.9843 69.2909 77.3832 69.4562 77.7992 69.4562C78.2152 69.4562 78.6142 69.2909 78.9083 68.9968C79.2025 68.7026 79.3677 68.3036 79.3677 67.8877V66.433C81.7118 66.7752 83.8829 67.8649 85.558 69.54C87.2331 71.2151 88.3227 73.3861 88.6649 75.7302H87.2103C86.7943 75.7302 86.3953 75.8955 86.1012 76.1896C85.807 76.4838 85.6418 76.8827 85.6418 77.2987C85.6418 77.7147 85.807 78.1137 86.1012 78.4078C86.3953 78.702 86.7943 78.8672 87.2103 78.8672H88.6649C88.3226 81.2112 87.2329 83.3822 85.5578 85.0572C83.8827 86.7322 81.7118 87.8218 79.3677 88.164Z" fill="#4E4BCB"/>
<path d="M80.8727 72.0071L77.4894 75.3904L74.3178 73.8046C73.9457 73.6186 73.5149 73.588 73.1203 73.7196C72.7256 73.8512 72.3994 74.1341 72.2134 74.5062C72.0274 74.8783 71.9968 75.3091 72.1284 75.7037C72.2599 76.0983 72.5429 76.4246 72.915 76.6106L77.0977 78.7019C77.3921 78.8491 77.7254 78.8999 78.0503 78.8472C78.3753 78.7945 78.6754 78.6408 78.9081 78.4081L83.0908 74.2254C83.3837 73.931 83.5478 73.5325 83.5473 73.1172C83.5467 72.7019 83.3815 72.3039 83.0879 72.0102C82.7943 71.7166 82.3962 71.5514 81.9809 71.5508C81.5657 71.5502 81.1671 71.7143 80.8727 72.0071Z" fill="#4E4BCB"/>
</svg>
