<svg width="120" height="120" viewBox="0 0 120 120" fill="none" xmlns="http://www.w3.org/2000/svg">
<circle cx="60" cy="60" r="60" fill="#441DFC" fill-opacity="0.08"/>
<g clip-path="url(#clip0)">
<path d="M60.3839 31.7031C54.203 31.7031 49.1758 36.7317 49.1758 42.9126V48.72C49.1758 54.9013 54.203 59.9299 60.3839 59.9299C66.5652 59.9299 71.592 54.9013 71.592 48.72V42.9126C71.5921 36.7317 66.5652 31.7031 60.3839 31.7031Z" fill="#4E4BCB"/>
<path d="M85.1022 74.5369C81.5132 68.4207 75.7765 63.8864 68.949 61.769C68.7907 61.7199 68.6195 61.7617 68.5016 61.8782C65.3256 65.0097 61.379 67.4529 60.3924 68.0431C59.3392 67.3699 54.9031 64.4783 52.2658 61.8782C52.1483 61.7617 51.9758 61.7199 51.8184 61.769C44.99 63.8868 39.2538 68.4212 35.6661 74.5374C35.584 74.6773 35.584 74.8513 35.6661 74.9912C40.7608 83.6726 50.232 89.0656 60.3837 89.0656C70.5359 89.0656 80.0075 83.6726 85.1022 74.9912C85.1848 74.8508 85.1848 74.6769 85.1022 74.5369ZM75.6278 77.8804C75.6278 78.1278 75.3924 78.3169 75.1455 78.3169H72.1099C71.8626 78.3169 71.5927 78.5293 71.5927 78.7771V81.9164C71.5927 82.1633 71.4606 82.3519 71.2132 82.3519H68.4869C68.2396 82.3519 68.0064 82.1633 68.0064 81.9164V78.7771C68.0055 78.5298 67.8366 78.3169 67.5893 78.3169H64.4229C64.1756 78.3169 63.9709 78.1273 63.9709 77.8804V75.1775C63.9709 74.9302 64.1756 74.7306 64.4229 74.7306H67.5893C67.8366 74.7306 68.0055 74.5287 68.0055 74.2808V71.1379C68.0055 70.8905 68.2386 70.6955 68.486 70.6955H71.1829C71.4298 70.6955 71.5923 70.8905 71.5923 71.1379V74.29C71.5923 74.5378 71.8318 74.7301 72.0796 74.7301H75.1455C75.3924 74.7301 75.6278 74.9394 75.6278 75.1867V77.8804Z" fill="#4E4BCB"/>
</g>
<defs>
<clipPath id="clip0">
<rect width="57.3626" height="57.3626" fill="white" transform="translate(31.7021 31.7031)"/>
</clipPath>
</defs>
</svg>
