<svg width="202" height="34" viewBox="0 0 202 34" fill="none" xmlns="http://www.w3.org/2000/svg">
<path d="M0 17.53V8.22563L5.7187 3.64085V14.968L19.417 26.8344L30.1894 17.53L29.1254 16.4513L19.417 24.6769L7.04862 14.1589V2.15754L9.84148 0L19.417 8.49533L29.1254 0L38.7009 8.22563V15.5073L29.1254 7.28171L19.417 15.5073L12.5013 9.5741V11.5968L19.417 17.53L29.1254 9.16956L38.7009 17.53L19.417 33.9813L0 17.53Z" fill="#4E4BCB"/>
<path d="M78.582 9.41955L73.474 24.8318H70.4355L66.6265 13.4267L62.7514 24.8318H59.691L54.583 9.41955H57.5553L61.3864 21.1329L65.3715 9.41955H68.0136L71.9107 21.1989L75.8518 9.41955H78.582ZM90.4538 19.0192C90.4538 19.21 90.4392 19.4815 90.4098 19.8338H81.1845C81.3459 20.6998 81.7643 21.3897 82.4395 21.9035C83.1294 22.4025 83.9807 22.6521 84.9935 22.6521C86.2852 22.6521 87.3494 22.2264 88.186 21.375L89.6612 23.0704C89.1328 23.7016 88.4649 24.1786 87.6576 24.5015C86.8503 24.8244 85.9403 24.9859 84.9275 24.9859C83.6358 24.9859 82.4982 24.729 81.5147 24.2153C80.5313 23.7016 79.768 22.9897 79.2249 22.0796C78.6965 21.1549 78.4323 20.1127 78.4323 18.9531C78.4323 17.8082 78.6892 16.7807 79.2029 15.8707C79.7313 14.9459 80.4579 14.2267 81.3826 13.713C82.3074 13.1992 83.3495 12.9423 84.5091 12.9423C85.654 12.9423 86.6742 13.1992 87.5696 13.713C88.4796 14.212 89.1842 14.9239 89.6832 15.8487C90.197 16.7587 90.4538 17.8156 90.4538 19.0192ZM84.5091 15.1441C83.6284 15.1441 82.8798 15.4083 82.2633 15.9367C81.6615 16.4505 81.2946 17.1403 81.1625 18.0064H87.8338C87.7163 17.155 87.3567 16.4651 86.7549 15.9367C86.1531 15.4083 85.4045 15.1441 84.5091 15.1441ZM92.7305 8.49482H95.4827V24.8318H92.7305V8.49482ZM98.728 8.49482H101.48V24.8318H98.728V8.49482ZM111.397 12.9423C112.879 12.9423 114.068 13.3754 114.964 14.2414C115.859 15.1074 116.307 16.3918 116.307 18.0944V24.8318H113.554V18.4467C113.554 17.4192 113.312 16.6486 112.828 16.1349C112.344 15.6065 111.654 15.3423 110.758 15.3423C109.745 15.3423 108.945 15.6505 108.358 16.267C107.771 16.8688 107.478 17.7422 107.478 18.8871V24.8318H104.725V13.0745H107.346V14.5937C107.801 14.0506 108.373 13.6396 109.063 13.3607C109.753 13.0818 110.531 12.9423 111.397 12.9423ZM130.591 19.0192C130.591 19.21 130.577 19.4815 130.547 19.8338H121.322C121.483 20.6998 121.902 21.3897 122.577 21.9035C123.267 22.4025 124.118 22.6521 125.131 22.6521C126.423 22.6521 127.487 22.2264 128.324 21.375L129.799 23.0704C129.27 23.7016 128.602 24.1786 127.795 24.5015C126.988 24.8244 126.078 24.9859 125.065 24.9859C123.773 24.9859 122.636 24.729 121.652 24.2153C120.669 23.7016 119.905 22.9897 119.362 22.0796C118.834 21.1549 118.57 20.1127 118.57 18.9531C118.57 17.8082 118.827 16.7807 119.34 15.8707C119.869 14.9459 120.595 14.2267 121.52 13.713C122.445 13.1992 123.487 12.9423 124.647 12.9423C125.791 12.9423 126.812 13.1992 127.707 13.713C128.617 14.212 129.322 14.9239 129.821 15.8487C130.334 16.7587 130.591 17.8156 130.591 19.0192ZM124.647 15.1441C123.766 15.1441 123.017 15.4083 122.401 15.9367C121.799 16.4505 121.432 17.1403 121.3 18.0064H127.971C127.854 17.155 127.494 16.4651 126.892 15.9367C126.291 15.4083 125.542 15.1441 124.647 15.1441ZM136.501 24.9859C135.547 24.9859 134.615 24.8611 133.705 24.6116C132.795 24.3621 132.068 24.0465 131.525 23.6649L132.582 21.5732C133.11 21.9255 133.741 22.2117 134.475 22.4319C135.224 22.6374 135.958 22.7401 136.677 22.7401C138.321 22.7401 139.143 22.3071 139.143 21.4411C139.143 21.0301 138.93 20.7439 138.504 20.5824C138.093 20.421 137.426 20.2668 136.501 20.12C135.532 19.9733 134.739 19.8045 134.123 19.6136C133.521 19.4228 132.993 19.0926 132.538 18.6229C132.097 18.1385 131.877 17.4706 131.877 16.6193C131.877 15.5037 132.34 14.6157 133.264 13.9552C134.204 13.2799 135.466 12.9423 137.051 12.9423C137.859 12.9423 138.666 13.0378 139.473 13.2286C140.281 13.4047 140.941 13.6469 141.455 13.9552L140.398 16.0468C139.4 15.4597 138.277 15.1661 137.029 15.1661C136.222 15.1661 135.606 15.2909 135.18 15.5404C134.769 15.7753 134.563 16.0908 134.563 16.4872C134.563 16.9275 134.784 17.2431 135.224 17.4339C135.679 17.6101 136.376 17.7789 137.316 17.9403C138.255 18.0871 139.026 18.2559 139.627 18.4467C140.229 18.6375 140.743 18.9605 141.169 19.4155C141.609 19.8705 141.829 20.5164 141.829 21.353C141.829 22.4539 141.352 23.3346 140.398 23.9951C139.444 24.6556 138.145 24.9859 136.501 24.9859ZM147.465 24.9859C146.511 24.9859 145.579 24.8611 144.669 24.6116C143.759 24.3621 143.032 24.0465 142.489 23.6649L143.546 21.5732C144.074 21.9255 144.706 22.2117 145.44 22.4319C146.188 22.6374 146.922 22.7401 147.641 22.7401C149.285 22.7401 150.107 22.3071 150.107 21.4411C150.107 21.0301 149.894 20.7439 149.469 20.5824C149.058 20.421 148.39 20.2668 147.465 20.12C146.496 19.9733 145.704 19.8045 145.087 19.6136C144.485 19.4228 143.957 19.0926 143.502 18.6229C143.062 18.1385 142.842 17.4706 142.842 16.6193C142.842 15.5037 143.304 14.6157 144.229 13.9552C145.168 13.2799 146.43 12.9423 148.016 12.9423C148.823 12.9423 149.63 13.0378 150.438 13.2286C151.245 13.4047 151.905 13.6469 152.419 13.9552L151.362 16.0468C150.364 15.4597 149.241 15.1661 147.994 15.1661C147.186 15.1661 146.57 15.2909 146.144 15.5404C145.733 15.7753 145.528 16.0908 145.528 16.4872C145.528 16.9275 145.748 17.2431 146.188 17.4339C146.643 17.6101 147.34 17.7789 148.28 17.9403C149.219 18.0871 149.99 18.2559 150.592 18.4467C151.193 18.6375 151.707 18.9605 152.133 19.4155C152.573 19.8705 152.793 20.5164 152.793 21.353C152.793 22.4539 152.316 23.3346 151.362 23.9951C150.408 24.6556 149.109 24.9859 147.465 24.9859ZM167.912 25.052C166.357 25.052 164.947 24.7144 163.685 24.0392C162.437 23.3493 161.454 22.4025 160.735 21.1989C160.03 19.9953 159.678 18.6375 159.678 17.1257C159.678 15.6138 160.038 14.2561 160.757 13.0524C161.476 11.8488 162.459 10.9094 163.707 10.2342C164.969 9.54432 166.379 9.19938 167.934 9.19938C169.197 9.19938 170.349 9.41955 171.391 9.8599C172.433 10.3003 173.314 10.9388 174.033 11.7754L172.184 13.5148C171.068 12.3112 169.696 11.7094 168.067 11.7094C167.01 11.7094 166.063 11.9442 165.226 12.4139C164.39 12.869 163.736 13.5075 163.267 14.3294C162.797 15.1514 162.562 16.0835 162.562 17.1257C162.562 18.1678 162.797 19.0999 163.267 19.9219C163.736 20.7439 164.39 21.3897 165.226 21.8594C166.063 22.3145 167.01 22.542 168.067 22.542C169.696 22.542 171.068 21.9328 172.184 20.7145L174.033 22.4759C173.314 23.3126 172.426 23.9511 171.369 24.3914C170.327 24.8318 169.175 25.052 167.912 25.052ZM176.145 13.0745H178.897V24.8318H176.145V13.0745ZM177.532 11.1369C177.033 11.1369 176.614 10.9828 176.277 10.6745C175.939 10.3516 175.77 9.95531 175.77 9.4856C175.77 9.0159 175.939 8.62692 176.277 8.31868C176.614 7.99575 177.033 7.83429 177.532 7.83429C178.031 7.83429 178.449 7.98842 178.787 8.29666C179.124 8.59023 179.293 8.96452 179.293 9.41955C179.293 9.90394 179.124 10.3149 178.787 10.6525C178.464 10.9755 178.046 11.1369 177.532 11.1369ZM189.21 24.1933C188.887 24.4575 188.491 24.6556 188.021 24.7878C187.566 24.9199 187.081 24.9859 186.568 24.9859C185.276 24.9859 184.278 24.6483 183.573 23.9731C182.869 23.2979 182.516 22.3145 182.516 21.0228V15.3643H180.579V13.1625H182.516V10.4764H185.269V13.1625H188.417V15.3643H185.269V20.9567C185.269 21.5292 185.408 21.9695 185.687 22.2778C185.966 22.5713 186.369 22.7181 186.898 22.7181C187.514 22.7181 188.028 22.5566 188.439 22.2337L189.21 24.1933ZM201.901 13.0745L196.396 25.7785C195.882 27.0556 195.259 27.9509 194.525 28.4647C193.791 28.9931 192.903 29.2573 191.861 29.2573C191.273 29.2573 190.694 29.1619 190.121 28.9711C189.549 28.7803 189.079 28.516 188.712 28.1784L189.813 26.1528C190.077 26.4024 190.385 26.6005 190.738 26.7473C191.105 26.8941 191.472 26.9675 191.839 26.9675C192.323 26.9675 192.719 26.8427 193.027 26.5932C193.35 26.3437 193.644 25.9253 193.908 25.3382L194.106 24.8758L188.976 13.0745H191.839L195.537 21.7714L199.258 13.0745H201.901Z" fill="black"/>
</svg>
